<svg width="142" height="129" viewBox="0 0 142 129" fill="none" xmlns="http://www.w3.org/2000/svg">
<path d="M132.923 14.3625L123.878 10.5825V71.535L140.28 31.98C143.048 25.095 139.875 17.1975 132.923 14.3625ZM1.29751 39.3375L34.7775 120C35.7634 122.454 37.445 124.567 39.6157 126.078C41.7863 127.589 44.3512 128.432 46.995 128.505C48.75 128.505 50.5725 128.168 52.3275 127.425L102.075 106.837C107.138 104.745 110.243 99.75 110.378 94.755C110.445 93 110.108 91.0425 109.5 89.2875L75.75 8.625C74.796 6.15463 73.1204 4.02866 70.9413 2.52379C68.7623 1.01891 66.1806 0.204832 63.5325 0.1875C61.7775 0.1875 60.0225 0.592501 58.335 1.2L8.65501 21.7875C5.35266 23.1398 2.72251 25.7482 1.34282 29.0393C-0.0368752 32.3303 -0.0531728 36.0345 1.29751 39.3375ZM110.31 13.6875C110.31 10.1071 108.888 6.6733 106.356 4.14156C103.824 1.60982 100.39 0.1875 96.81 0.1875H87.0225L110.31 56.4825" fill="black"/>
</svg>
